<svg width="48" height="64" viewBox="0 0 48 64" fill="none" xmlns="http://www.w3.org/2000/svg">
  <path d="M8.67,8.28v9.54c.35-.4.61-.7.87-.99.47-.51,1.02-.58,1.55-.14.51.42.52,1,.15,1.49-.9,1.19-1.84,2.35-2.81,3.49-.54.63-1.2.63-1.73,0-.97-1.14-1.9-2.3-2.82-3.48-.4-.51-.35-1.07.15-1.49.53-.45,1.07-.37,1.56.12.26.26.41.63.83.83v-9.19c-.34.12-.49.42-.67.65-.47.6-1.04.77-1.68.35-.55-.36-.56-1.06-.05-1.7.86-1.08,1.72-2.15,2.6-3.2.63-.75,1.29-.75,1.9,0,.88,1.06,1.74,2.13,2.6,3.21.49.62.48,1.35-.04,1.7-.6.4-1.16.29-1.62-.27-.22-.27-.44-.52-.77-.91Z" fill="#ffffff" />
  <path d="M40.94,29.99c-1.13-.28-2.17-.02-3.22.43-.07-3.6-3.25-5.96-6.67-4.36-.86-4.16-3.29-5.76-6.82-4.3v-1.03c0-3.76,0-7.51,0-11.27,0-.53-.04-1.06-.12-1.58-.36-2.28-2.67-4.38-5.41-3.72-1.92.47-3.4,2.33-3.4,4.47,0,7.22-.01,14.44.01,21.66,0,.56-.14.79-.7.93-2.3.59-3.82,2.1-4.67,4.27-.98,2.51-1.22,5.13-.71,7.77,1.06,5.45,3.77,9.93,8.26,13.23,4.52,3.32,9.57,4.34,14.96,2.82,6.11-1.72,9.49-6.03,10.67-12.12.38-1.98.5-4.01.67-6.02.19-2.31.58-4.6.59-6.92,0-2-1.49-3.77-3.44-4.25ZM42.2,34.68c-.37,4-.59,8.02-1.22,11.98-1.07,6.67-6.03,10.94-12.64,11.04-7.02.11-11.73-3.53-15.01-9.39-1.75-3.13-2.52-6.48-1.89-10.07.35-2,1.09-3.76,3.09-4.7.62-.29.79-.18.78.51-.03,2.23,0,4.46-.02,6.69,0,.77.25,1.27,1.05,1.34.68.06,1.12-.49,1.12-1.36,0-5.31,0-10.63,0-15.94,0-5.28,0-10.57,0-15.85,0-1.49.82-2.56,2-2.68,1.39-.14,2.52.95,2.53,2.51.02,2.47,0,4.93,0,7.4,0,4.14,0,8.28,0,12.42,0,1.04.32,1.47,1.09,1.47.75,0,1.12-.45,1.14-1.45.01-.91-.02-1.82.01-2.73.04-1.44.97-2.47,2.2-2.5,1.25-.03,2.25,1.06,2.26,2.52.02,1.32,0,2.64,0,3.96,0,.91.39,1.4,1.08,1.43.71.03,1.08-.38,1.19-1.33.16-1.36,1.06-2.23,2.27-2.21,1.2.02,2.11.96,2.18,2.3.05,1,.02,2,.02,2.99,0,.23-.01.47.02.7.1.63.39,1.14,1.08,1.2.64.06,1.01-.34,1.18-.95.25-.89.71-1.62,1.68-1.85,1.54-.36,2.94.87,2.79,2.52Z" fill="#ffffff" />
</svg>